<?xml version='1.0' encoding='utf-8'?>
<svg xmlns:ns0="http://www.w3.org/2000/svg" xmlns="http://www.w3.org/2000/svg">
    <symbol id="icon-plus" viewBox="0 0 964 1024">
        <ns0:g id="icomoon-ignore">
</ns0:g>
        <ns0:path fill="currentColor"
            d="M481.882 29.382c-265.71 0-481.882 216.172-481.882 481.882s216.172 481.883 481.882 481.883c265.71 0 481.882-216.172 481.882-481.883s-216.172-481.882-481.882-481.882zM686.682 547.406h-168.659v168.659c0 19.974-16.167 36.141-36.141 36.141s-36.141-16.167-36.141-36.141v-168.659h-168.659c-19.974 0-36.141-16.167-36.141-36.141s16.167-36.141 36.141-36.141h168.659v-168.659c0-19.974 16.167-36.141 36.141-36.141s36.141 16.167 36.141 36.141v168.659h168.659c19.974 0 36.141 16.167 36.141 36.141s-16.167 36.141-36.141 36.141z" />
    </symbol>
    <symbol id="icon-gift" viewBox="0 0 964 1024">
        <ns0:g id="icomoon-ignore">
</ns0:g>
        <ns0:path fill="currentColor"
            d="M80.217 631.765h361.499v361.499h-160.666c-53.265 0-104.347-21.16-142.010-58.822s-58.822-88.748-58.822-142.009v-160.668zM963.881 471.098c0 21.305-8.465 41.739-23.528 56.804-15.069 15.065-35.5 23.529-56.804 23.529h-361.501v-162.393c-13.496 1.044-26.952 1.726-40.167 1.726s-26.67-0.682-40.167-1.726v162.393h-361.499c-21.305 0-41.738-8.464-56.804-23.529s-23.529-35.499-23.529-56.804c0-42.611 16.927-83.477 47.058-113.608s70.997-47.058 113.608-47.058h69.809c-22.709-20.019-40.737-44.791-52.801-72.557s-17.871-57.847-17.008-88.109c0-10.653 4.231-20.869 11.765-28.402s17.749-11.765 28.402-11.765c10.653 0 20.869 4.231 28.403 11.765s11.765 17.749 11.765 28.402c0 105.316 95.235 141.788 167.655 154.28-26.73-47.394-42.821-100.040-47.155-154.28 0-31.959 12.695-62.608 35.294-85.206s53.248-35.294 85.206-35.294c31.959 0 62.608 12.695 85.206 35.294s35.294 53.248 35.294 85.206c-4.334 54.24-20.425 106.886-47.155 154.28 72.418-12.492 167.655-48.963 167.655-154.28 0-10.653 4.23-20.869 11.767-28.402 7.531-7.533 17.749-11.765 28.402-11.765s20.864 4.231 28.402 11.765c7.531 7.533 11.761 17.749 11.761 28.402 0.867 30.262-4.94 60.344-17.008 88.109-12.062 27.767-30.089 52.538-52.797 72.557h69.806c42.614 0 83.482 16.927 113.613 47.058 30.125 30.131 47.055 70.996 47.055 113.608zM441.715 149.766c4.849 42.69 18.528 83.904 40.167 121.022 21.639-37.118 35.318-78.332 40.167-121.022 0-10.653-4.232-20.869-11.765-28.402s-17.749-11.765-28.403-11.765c-10.653 0-20.869 4.231-28.402 11.765s-11.765 17.749-11.765 28.402zM522.049 993.263h160.664c26.377 0 52.49-5.193 76.855-15.286 24.371-10.097 46.507-24.889 65.16-43.536 18.647-18.647 33.439-40.789 43.53-65.154s15.292-50.483 15.292-76.855v-160.668h-361.501v361.499z" />
    </symbol>

    <!-- !!!!!!!!!!!!!!!!!!!!! -->
    <symbol id="icon-arrow" viewBox="0 0 28 32">
        <path
            d="M14.222 25.132v-17.63M14.222 7.502l-8.296 8.815M14.222 7.502l8.296 8.815"
            fill="none"
            stroke="currentColor"
            stroke-width="5"
            stroke-linecap="round"
            stroke-linejoin="round"
        />
    </symbol>

    <symbol id="icon-check" viewBox="0 0 32 32">
        <path
            d="M28.779 6.39c-0.288 0.009-0.547 0.131-0.733 0.323l-16.313 16.313-6.713-6.712c-0.194-0.202-0.467-0.328-0.769-0.328-0.589 0-1.067 0.478-1.067 1.067 0 0.302 0.126 0.575 0.328 0.769l7.467 7.467c0.193 0.193 0.46 0.312 0.754 0.312s0.561-0.119 0.754-0.312l17.067-17.067c0.199-0.194 0.323-0.465 0.323-0.765 0-0.589-0.478-1.067-1.067-1.067-0.011 0-0.022 0-0.033 0l0.002-0z"></path>
    </symbol>
    <symbol id="icon-chevron-left" viewBox="0 0 31 32">
        <path stroke-linejoin="round" stroke-linecap="round" stroke-miterlimit="4"
            stroke-width="2.56" d="M19.2 23.055l-7.68-7.68 7.68-7.68"></path>
    </symbol>
    <symbol id="icon-chevron-right" viewBox="0 0 31 32">
        <path stroke-linejoin="round" stroke-linecap="round" stroke-miterlimit="4"
            stroke-width="2.56" d="M11.52 23.055l7.68-7.68-7.68-7.68"></path>
    </symbol>

    <symbol id="icon-crown" viewBox="0 0 30 32">
        <path
            d="M28.569 6.648c-0.459-0.191-0.964-0.241-1.451-0.144s-0.934 0.337-1.285 0.689l-3.245 3.245-5.755-5.755c-0.471-0.471-1.109-0.735-1.774-0.735s-1.304 0.264-1.774 0.735l-5.755 5.755-3.245-3.245c-0.351-0.351-0.798-0.59-1.285-0.687s-0.991-0.047-1.45 0.143c-0.459 0.19-0.85 0.512-1.126 0.924s-0.423 0.898-0.423 1.394v13.284c0.002 1.663 0.664 3.258 1.84 4.434s2.771 1.838 4.435 1.84h17.569c1.663-0.002 3.258-0.664 4.434-1.84s1.838-2.771 1.84-4.434v-13.284c0-0.496-0.147-0.982-0.423-1.394s-0.667-0.735-1.126-0.925z"></path>
    </symbol>
    <symbol id="icon-fire" viewBox="0 0 28 32">
        <path
            d="M13.955 31.956c-1.705 0.021-5.578-0.953-6.458-4.557-0.879-3.601 1.268-6.806 1.268-6.806 0.253-0.376 0.713-0.561 1.157-0.465s0.785 0.455 0.861 0.904c0.053 0.318 0.249 0.581 0.473 0.8 0.591-4.763 3.751-6.733 3.751-6.733 0.342-0.221 0.779-0.236 1.136-0.040 0.357 0.197 0.579 0.573 0.576 0.981-0.009 1.502 1.003 2.431 1.936 3.559 1.246 1.505 2.473 3.228 2.505 6.044 0.058 5.096-3.982 5.985-6.074 6.221 3.61-0.317 12.025-1.484 11.911-11.41-0.062-5.317-2.406-8.558-4.76-11.403-2.040-2.465-4.149-4.553-4.129-7.836 0.002-0.385-0.196-0.744-0.52-0.948-0.326-0.204-0.735-0.227-1.080-0.058 0 0-7.268 3.48-7.985 13.486-0.239-0.236-0.484-0.498-0.723-0.781-0.705-0.836-1.369-1.862-1.56-3.001-0.079-0.468-0.447-0.837-0.917-0.913-0.47-0.077-0.936 0.154-1.16 0.575 0 0-3.941 7.479-2.32 14.118 1.662 6.807 9.198 8.436 12.111 8.264z"></path>
    </symbol>
    <symbol id="suitcase" viewBox="0 0 32 32">
        <path
            d="M13.333 8v-8h5.333v8c0 0.707-0.281 1.386-0.781 1.886s-1.178 0.781-1.886 0.781c-0.707 0-1.386-0.281-1.886-0.781s-0.781-1.178-0.781-1.886zM21.333 6.667h10.667c-0.002-1.767-0.705-3.462-1.955-4.712s-2.944-1.953-4.712-1.955h-4v6.667zM10.667 0h-4c-1.767 0.002-3.462 0.705-4.712 1.955s-1.953 2.944-1.955 4.712h10.667v-6.667zM32 9.333v16c-0.002 1.768-0.705 3.462-1.955 4.712s-2.944 1.953-4.712 1.955h-18.667c-1.767-0.002-3.462-0.705-4.712-1.955s-1.953-2.944-1.955-4.712v-16h10.856c0.291 1.143 0.955 2.157 1.886 2.882s2.078 1.117 3.258 1.117c1.18 0 2.326-0.393 3.258-1.117s1.595-1.738 1.886-2.881h10.856zM26.667 25.333c0-0.354-0.14-0.693-0.391-0.943s-0.589-0.391-0.943-0.391h-4c-0.354 0-0.693 0.14-0.943 0.391s-0.391 0.589-0.391 0.943c0 0.354 0.14 0.693 0.391 0.943s0.589 0.391 0.943 0.391h4c0.354 0 0.693-0.14 0.943-0.391s0.391-0.589 0.391-0.943z"></path>
    </symbol>
    <symbol id="smile" viewBox="0 0 32 32">
        <path
            d="M16 6.667c-5.147 0-9.333 4.187-9.333 9.333s4.187 9.333 9.333 9.333c5.147 0 9.333-4.187 9.333-9.333s-4.187-9.333-9.333-9.333zM19.333 12c1.104 0 2 0.896 2 2s-0.896 2-2 2c-1.104 0-2-0.896-2-2s0.896-2 2-2zM12.667 12c1.104 0 2 0.896 2 2s-0.896 2-2 2c-1.104 0-2-0.896-2-2s0.896-2 2-2zM20.74 19.776c-0.24 0.16-2.404 1.557-4.74 1.557s-4.5-1.397-4.74-1.557c-0.613-0.408-0.779-1.236-0.369-1.849 0.408-0.611 1.233-0.779 1.847-0.372 0.469 0.309 1.969 1.111 3.263 1.111 1.553 0 3.244-1.099 3.26-1.109 0.615-0.411 1.44-0.244 1.849 0.369 0.409 0.612 0.244 1.443-0.369 1.851zM9.333 32h-2.667c-3.676 0-6.667-2.991-6.667-6.667v-2.667c0-0.736 0.596-1.333 1.333-1.333s1.333 0.597 1.333 1.333v2.667c0 2.205 1.795 4 4 4h2.667c0.737 0 1.333 0.597 1.333 1.333s-0.596 1.333-1.333 1.333zM25.333 32h-2.667c-0.737 0-1.333-0.597-1.333-1.333s0.596-1.333 1.333-1.333h2.667c2.205 0 4-1.795 4-4v-2.667c0-0.736 0.596-1.333 1.333-1.333s1.333 0.597 1.333 1.333v2.667c0 3.676-2.991 6.667-6.667 6.667zM30.667 10.667c-0.737 0-1.333-0.597-1.333-1.333v-2.667c0-2.205-1.795-4-4-4h-2.667c-0.737 0-1.333-0.597-1.333-1.333s0.596-1.333 1.333-1.333h2.667c3.676 0 6.667 2.991 6.667 6.667v2.667c0 0.736-0.596 1.333-1.333 1.333zM1.333 10.667c-0.737 0-1.333-0.597-1.333-1.333v-2.667c0-3.676 2.991-6.667 6.667-6.667h2.667c0.737 0 1.333 0.597 1.333 1.333s-0.596 1.333-1.333 1.333h-2.667c-2.205 0-4 1.795-4 4v2.667c0 0.736-0.596 1.333-1.333 1.333z"></path>
    </symbol>
    <symbol id="people" viewBox="0 0 32 32">
        <path
            d="M27.333 8h-2.667c-2.573 0-4.667 2.093-4.667 4.667v5.333c0 1.855 1.096 3.447 2.667 4.199v8.468c0 0.736 0.597 1.333 1.333 1.333s1.333-0.597 1.333-1.333v-8h1.333v8c0 0.736 0.597 1.333 1.333 1.333s1.333-0.597 1.333-1.333v-8.468c1.571-0.752 2.667-2.344 2.667-4.199v-5.333c0-2.573-2.093-4.667-4.667-4.667zM22.667 3.333c0-1.841 1.492-3.333 3.333-3.333s3.333 1.492 3.333 3.333c0 1.841-1.492 3.333-3.333 3.333s-3.333-1.492-3.333-3.333zM16 3.333c0-1.841 1.492-3.333 3.333-3.333 0.536 0 1.036 0.139 1.485 0.364-0.507 0.879-0.819 1.884-0.819 2.969s0.312 2.091 0.82 2.969c-0.449 0.225-0.949 0.364-1.487 0.364-1.841 0-3.333-1.492-3.333-3.333zM9.333 3.333c0-1.841 1.492-3.333 3.333-3.333 0.536 0 1.036 0.139 1.485 0.364-0.507 0.879-0.819 1.884-0.819 2.969s0.312 2.091 0.82 2.969c-0.449 0.225-0.949 0.364-1.487 0.364-1.841 0-3.333-1.492-3.333-3.333zM2.667 3.333c0-1.841 1.492-3.333 3.333-3.333 0.536 0 1.036 0.139 1.485 0.364-0.507 0.879-0.819 1.884-0.819 2.969s0.312 2.091 0.82 2.969c-0.449 0.225-0.949 0.364-1.487 0.364-1.841 0-3.333-1.492-3.333-3.333zM19.015 8c-1.049 1.269-1.681 2.896-1.681 4.667v16.667c0 0.736-0.597 1.333-1.333 1.333s-1.333-0.597-1.333-1.333v-8.068c-0.844-0.865-1.333-2.043-1.333-3.265v-5.333c0-2.573 2.093-4.667 4.667-4.667h1.015zM12.348 8c-1.049 1.269-1.681 1.563-1.681 3.333v15.333c0 0.736-0.597 1.333-1.333 1.333s-1.333-0.597-1.333-1.333v-6.735c-0.844-0.865-1.333-2.043-1.333-3.265v-4c0-2.573 2.093-4.667 4.667-4.667h1.015zM5.681 8c-1.049 1.269-1.681 1.563-1.681 3.333v12.667c0 0.736-0.597 1.333-1.333 1.333s-1.333-0.597-1.333-1.333v-5.401c-0.844-0.865-1.333-2.043-1.333-3.265v-2.667c0-2.573 2.093-4.667 4.667-4.667h1.015z"></path>
    </symbol>
    <symbol id="people-star" viewBox="0 0 32 32">
        <path
            d="M10.667 16c-4.412 0-8-3.588-8-8s3.588-8 8-8c4.412 0 8 3.588 8 8s-3.588 8-8 8zM19.659 32c-0.281 0-0.563-0.089-0.8-0.267-0.453-0.339-0.641-0.928-0.472-1.468l1.255-4.021-3.169-2.579c-0.427-0.361-0.583-0.951-0.389-1.476s0.692-0.873 1.251-0.873h4.001l1.416-3.973c0.195-0.521 0.693-0.868 1.249-0.868s1.055 0.347 1.249 0.868l1.416 3.973h4.001c0.56 0 1.060 0.351 1.252 0.876s0.035 1.116-0.393 1.477l-3.155 2.569 1.305 3.973c0.179 0.537-0.003 1.129-0.452 1.475s-1.068 0.369-1.541 0.061l-3.672-2.391-3.611 2.416c-0.224 0.151-0.483 0.227-0.741 0.227zM13.249 32h-11.916c-0.736 0-1.333-0.597-1.333-1.333 0-6.616 5.384-12 12-12h1.249c0.461 0 0.889 0.24 1.133 0.632 0.243 0.392 0.265 0.883 0.060 1.295-0.736 1.48-1.109 3.076-1.109 4.74s0.373 3.259 1.109 4.74c0.205 0.413 0.183 0.904-0.060 1.296s-0.672 0.631-1.133 0.631z"></path>
    </symbol>
    <symbol id="money" viewBox="0 0 32 32">
        <path
            d="M17.404 6.772c1.295-1.212 3.125-3.147 3.859-4.992 0.34-0.855-0.343-1.78-1.263-1.78h-8c-0.92 0-1.603 0.924-1.263 1.78 0.733 1.845 2.564 3.78 3.859 4.992-7.171 1.065-13.263 10.052-13.263 17.228 0 4.412 3.588 8 8 8h13.333c4.412 0 8-3.588 8-8 0-7.176-6.092-16.163-13.263-17.228zM14.191 18.348l4.056 0.676c1.788 0.297 3.087 1.831 3.087 3.644 0 2.205-1.795 4-4 4v1.333c0 0.736-0.597 1.333-1.333 1.333s-1.333-0.597-1.333-1.333v-1.333h-0.357c-1.424 0-2.751-0.765-3.464-1.999-0.368-0.637-0.151-1.452 0.487-1.821 0.635-0.369 1.452-0.152 1.821 0.487 0.237 0.411 0.681 0.667 1.156 0.667h3.024c0.735 0 1.333-0.599 1.333-1.333 0-0.504-0.361-0.931-0.859-1.013l-4.056-0.676c-1.788-0.297-3.087-1.831-3.087-3.644 0-2.205 1.795-4 4-4v-1.333c0-0.736 0.597-1.333 1.333-1.333s1.333 0.597 1.333 1.333v1.333h0.357c1.423 0 2.751 0.767 3.464 2 0.368 0.637 0.151 1.452-0.487 1.821-0.636 0.369-1.452 0.152-1.821-0.487-0.239-0.412-0.681-0.667-1.156-0.667h-3.024c-0.735 0-1.333 0.599-1.333 1.333 0 0.504 0.361 0.931 0.859 1.013v-0.001z"></path>
    </symbol>
    <symbol id="sell" viewBox="0 0 32 32">
        <path
            d="M22.531 25.032l1.869-1.869c0.773-0.773 1.093-1.872 0.856-2.943-0.237-1.065-0.992-1.924-2.020-2.301l-8.239-2.995c-1.523-0.549-3.26-0.179-4.425 0.984-1.169 1.172-1.545 2.865-0.98 4.423l2.996 8.24c0.373 1.027 1.235 1.781 2.315 2.021 0.22 0.048 0.441 0.071 0.663 0.071 0.839 0 1.665-0.331 2.263-0.928l1.873-1.873 3.551 3.551c0.391 0.391 0.903 0.585 1.415 0.585s1.024-0.195 1.415-0.585c0.781-0.781 0.781-2.047 0-2.828l-3.551-3.552zM15.909 25.997l-2.556-7.031c-0.037-0.103-0.027-0.153 0.047-0.227s0.119-0.073 0.139-0.073l7.128 2.575-4.757 4.756zM27.333 0h-22.667c-2.577 0-4.667 2.089-4.667 4.667v6.667c0 2.577 2.089 4.667 4.667 4.667h2.651c0.335-0.716 0.783-1.389 1.368-1.975 0.747-0.744 1.645-1.284 2.609-1.619v-8.696c0-0.589 0.477-1.067 1.067-1.067h2.533c0.589 0 1.067 0.477 1.067 1.067s-0.477 1.067-1.067 1.067h-1.468v2.2h1.468c0.589 0 1.067 0.477 1.067 1.067s-0.477 1.067-1.067 1.067h-1.468v2.068h1.468c0.589 0 1.067 0.477 1.067 1.067v0.193l8.187 2.975c0.416 0.152 0.803 0.355 1.165 0.587h2.021c2.577 0 4.667-2.089 4.667-4.667v-6.667c0-2.577-2.091-4.667-4.668-4.667zM9.923 10.617c-0.255 1.567-1.62 2.704-3.248 2.704-0.885 0-1.735-0.261-2.453-0.737-0.516-0.343-0.596-1.068-0.157-1.505l0.003-0.003c0.315-0.313 0.803-0.377 1.181-0.147 0.421 0.255 0.919 0.397 1.427 0.397 0.805 0 1.375-0.539 1.461-1.060 0.119-0.733-0.803-1.164-1.089-1.279-1.22-0.495-2.335-1.040-2.337-1.040-0.923-0.645-1.369-1.641-1.228-2.732 0.148-1.127 0.899-2.045 1.961-2.395 1.131-0.373 2.16-0.095 2.895 0.284 0.525 0.271 0.673 0.955 0.312 1.421l-0.015 0.019c-0.273 0.355-0.748 0.481-1.153 0.304-0.408-0.179-0.947-0.301-1.516-0.117-0.549 0.181-0.689 0.596-0.687 0.769 0.007 0.589 0.447 0.76 0.577 0.82 0.376 0.171 1.075 0.491 1.821 0.793 1.948 0.788 2.436 2.327 2.245 3.503zM21.561 13.311h-2.533c-0.589 0-1.067-0.477-1.067-1.067v-8.533c0-0.589 0.477-1.067 1.067-1.067s1.067 0.477 1.067 1.067v7.468h1.468c0.589 0 1.067 0.477 1.067 1.067s-0.477 1.067-1.067 1.067l-0.001-0.001zM27.561 13.311h-2.533c-0.589 0-1.067-0.477-1.067-1.067v-8.533c0-0.589 0.477-1.067 1.067-1.067s1.067 0.477 1.067 1.067v7.468h1.468c0.589 0 1.067 0.477 1.067 1.067s-0.477 1.067-1.067 1.067l-0.001-0.001z"></path>
    </symbol>
    <symbol id="square-plus" viewBox="0 0 32 32">
        <path
            d="M25.333 0h-18.667c-3.676 0-6.667 2.991-6.667 6.667v18.667c0 3.676 2.991 6.667 6.667 6.667h18.667c3.676 0 6.667-2.991 6.667-6.667v-18.667c0-3.676-2.991-6.667-6.667-6.667zM21.333 17.333h-4v4c0 0.737-0.597 1.333-1.333 1.333s-1.333-0.596-1.333-1.333v-4h-4c-0.736 0-1.333-0.596-1.333-1.333s0.597-1.333 1.333-1.333h4v-4c0-0.737 0.597-1.333 1.333-1.333s1.333 0.596 1.333 1.333v4h4c0.736 0 1.333 0.596 1.333 1.333s-0.597 1.333-1.333 1.333z"></path>
    </symbol>
    <symbol id="icon-heatr" viewBox="0 0 30 32">
        <path
            d="M21.96 3.324c-1.413 0.022-2.795 0.416-4.007 1.144s-2.21 1.761-2.895 2.998c-0.684-1.236-1.683-2.271-2.895-2.998s-2.594-1.122-4.007-1.144c-2.253 0.098-4.375 1.083-5.903 2.741s-2.339 3.853-2.254 6.106c0 5.706 6.006 11.938 11.043 16.163 1.125 0.945 2.547 1.463 4.016 1.463s2.891-0.518 4.016-1.463c5.037-4.225 11.043-10.457 11.043-16.163 0.085-2.253-0.725-4.448-2.254-6.106s-3.651-2.643-5.903-2.741z"></path>
    </symbol>
    <symbol id="eight-star" viewBox="0 0 60 32">
        <path
            d="M0 16.757c0-1.847 0.189-3.791 0.568-5.832s0.9-4.014 1.566-5.918c0.677-1.915 1.445-3.584 2.305-5.006h2.856c-0.895 1.812-1.669 3.693-2.323 5.643-0.642 1.95-1.141 3.877-1.497 5.781-0.344 1.892-0.516 3.67-0.516 5.333 0 1.491 0.149 3.016 0.447 4.576 0.31 1.56 0.78 3.211 1.411 4.955 0.642 1.743 1.468 3.647 2.477 5.712h-2.856c-1.457-2.477-2.563-5.006-3.32-7.587-0.746-2.581-1.118-5.133-1.118-7.656z"></path>
        <path
            d="M27.62 23.209l0.206-5.505-4.645 2.959-1.204-2.099 4.886-2.546-4.886-2.546 1.204-2.133 4.645 2.959-0.206-5.505h2.409l-0.206 5.505 4.645-2.959 1.204 2.133-4.886 2.546 4.886 2.546-1.204 2.099-4.645-2.959 0.206 5.505h-2.409z"></path>
        <path
            d="M50.352 32c1.009-2.065 1.829-3.968 2.46-5.712 0.642-1.743 1.113-3.395 1.411-4.955 0.31-1.56 0.465-3.085 0.465-4.576 0-1.663-0.178-3.441-0.534-5.333-0.344-1.904-0.837-3.831-1.48-5.781s-1.416-3.831-2.322-5.643h2.856c0.872 1.422 1.64 3.091 2.305 5.006 0.665 1.904 1.187 3.877 1.566 5.918s0.568 3.986 0.568 5.832c0 2.523-0.378 5.075-1.135 7.656-0.746 2.581-1.847 5.11-3.303 7.587h-2.856z"></path>
    </symbol>
    <symbol id="icon-star-s" viewBox="0 0 30 32">
        <path
            d="M1.665 16.479l4.467 3.263-1.697 5.254c-0.274 0.815-0.278 1.697-0.010 2.514s0.792 1.526 1.496 2.020c0.691 0.511 1.529 0.784 2.388 0.78s1.694-0.286 2.38-0.804l4.368-3.215 4.37 3.211c0.69 0.508 1.523 0.783 2.38 0.787s1.692-0.263 2.387-0.764c0.695-0.501 1.213-1.209 1.48-2.023s0.269-1.691 0.006-2.507l-1.697-5.254 4.468-3.263c0.689-0.504 1.201-1.213 1.464-2.025s0.261-1.687-0.003-2.499c-0.264-0.812-0.779-1.519-1.469-2.021s-1.522-0.773-2.376-0.774h-5.488l-1.665-5.19c-0.262-0.817-0.776-1.53-1.47-2.035s-1.529-0.778-2.387-0.778c-0.858 0-1.694 0.272-2.387 0.778s-1.208 1.218-1.47 2.035l-1.665 5.19h-5.483c-0.854 0.001-1.685 0.272-2.376 0.774s-1.205 1.209-1.469 2.021c-0.264 0.812-0.266 1.686-0.003 2.499s0.775 1.521 1.464 2.025h-0.005z"></path>
    </symbol>
    <symbol id="icon-Subtract" viewBox="0 0 50 32">
        <path
            d="M5.565 13.913c3.32 2.459 10.792 4.174 19.478 4.174s16.158-1.715 19.478-4.174h-38.956z"></path>
    </symbol>
</svg>